<?xml version="1.0" encoding="utf-8"?>
<!-- Generator: Adobe Illustrator 23.0.4, SVG Export Plug-In . SVG Version: 6.00 Build 0)  -->
<svg version="1.1" id="Layer_1" xmlns="http://www.w3.org/2000/svg" xmlns:xlink="http://www.w3.org/1999/xlink" x="0px" y="0px"
	 viewBox="0 0 733 165" style="enable-background:new 0 0 733 165;" xml:space="preserve">
<style type="text/css">
	.st0{fill:none;stroke:#000000;stroke-width:4;stroke-miterlimit:10;}
</style>
<g>
	<path d="M3.86,103.7h3.93c0,7.38,7.1,18.37,20.38,18.37c6.17,0,10.66-3.77,10.66-8.36c0-4.1-4.11-7.05-10.47-10l-10.47-4.92
		C8.91,94.51,5.55,87.62,5.55,82.38c0-8.86,9.35-14.92,18.88-14.92c9.72,0,13.46,3.77,15.89,3.77c0.75,0,1.12-1.15,1.12-3.77h3.93
		v19.02h-3.93c0-6.89-5.61-13.78-15.14-13.78c-6.36,0-9.54,2.95-9.54,7.05c0,3.94,2.99,6.07,11.4,10l8.97,4.26
		c8.23,4.1,12.9,9.84,12.9,15.74c0,10.82-10.1,17.88-22.25,17.88c-8.41,0-14.96-5.25-17.58-5.25c-1.68,0-2.43,1.31-2.43,5.25H3.86
		V103.7z"/>
	<path d="M102.36,108.56c10.52,0,12.4-2.67,12.4-18.37v-49.6c0-15.7-1.88-18.37-12.4-18.37v-3.3L125.91,15v53.21
		c4.4-5.34,11.46-11.3,20.56-11.3c14.44,0,19.31,10.05,19.31,23.39v9.89c0,15.7,2.04,18.37,12.56,18.37v3.3h-34.85v-3.3
		c9.89,0,11.15-2.2,11.15-18.37v-9.1c0-10.2-3.61-16.8-11.77-16.8c-7.85,0-16.95,6.75-16.95,15.7v10.2
		c0,16.33,1.26,18.37,9.89,18.37v3.3h-33.44V108.56z"/>
	<path d="M231.69,84.47c0-15.91,13.26-27.47,26.65-27.47c12.82,0,23.05,10.81,19.59,23.72h-34.72
		c-1.73,14.11,3.89,25.07,18.73,25.07c4.75,0,11.67-2.85,15.85-6.91l2.59,3.3c-5.04,5.55-13.83,9.91-22.04,9.91
		C242.49,112.09,231.69,99.63,231.69,84.47z M268,75.16c1.58-4.8-0.86-12.16-10.37-12.16c-6.19,0-11.53,4.8-13.54,12.16H268z"/>
	<path d="M321.3,84.47c0-15.91,13.26-27.47,26.65-27.47c12.82,0,23.05,10.81,19.59,23.72h-34.72c-1.73,14.11,3.89,25.07,18.73,25.07
		c4.75,0,11.67-2.85,15.85-6.91l2.59,3.3c-5.04,5.55-13.83,9.91-22.04,9.91C332.11,112.09,321.3,99.63,321.3,84.47z M357.61,75.16
		c1.58-4.8-0.86-12.16-10.37-12.16c-6.19,0-11.53,4.8-13.54,12.16H357.61z"/>
	<path d="M431.39,109.78v-32.8h-8.53v-3.94c9.84-2.13,13.45-9.18,14.6-19.84h5.58v18.04h14.27v5.74h-14.27v32.8
		c0,7.71,2.13,11.81,7.38,11.81c2.95,0,6.89-1.97,10.66-5.58l2.79,2.79c-4.59,5.58-11.81,9.35-17.22,9.35
		C437.62,128.15,431.39,122.41,431.39,109.78z"/>
	<path d="M505.68,108.41c10.82,0,12.96-2.79,12.96-19.19v-8.2c0-16.4-2.13-19.02-12.96-19.02v-3.44l24.6-4.1v34.77
		c0,16.4,1.97,19.19,12.96,19.19v3.44h-37.56V108.41z M517.16,31c0-3.94,3.28-7.22,7.22-7.22c3.94,0,7.22,3.28,7.22,7.22
		c0,4.1-3.28,7.38-7.22,7.38C520.44,38.38,517.16,35.1,517.16,31z"/>
	<path d="M585.38,108.41c10.82,0,12.96-2.79,12.96-19.19V62.98h-13.45v-5.74h13.45V41.5c0-22.3,13.45-30.83,26.9-30.83
		c10.82,0,16.4,6.89,16.4,12.14c0,3.28-1.8,5.9-5.41,5.9c-8.04,0-3.61-12.63-13.94-12.63c-8.36,0-12.3,6.56-12.3,25.42v15.74h16.4
		v5.74h-16.4v26.24c0,16.4,1.97,19.19,12.96,19.19v3.44h-37.56V108.41z"/>
	<path d="M671.97,150.72c0-6.4,7.38-6.4,12.46-19.19l8.2-20.5L673.78,70.2c-3.44-7.38-5.9-9.68-10.99-9.68v-3.28h29.03v3.28
		c-7.22,0-8.86,1.64-5.25,9.68l11.97,26.24l10.5-26.24c2.95-7.54,1.97-9.68-4.76-9.68v-3.28h22.96v3.28c-5.08,0-8.69,2.3-11.64,9.68
		l-31.98,79.87c-1.31,3.28-3.44,6.07-6.07,6.07C675.25,156.13,671.97,154.82,671.97,150.72z"/>
</g>
<line class="st0" x1="50" y1="151" x2="4" y2="151"/>
<line class="st0" x1="469" y1="151" x2="423" y2="151"/>
</svg>
