<?xml version="1.0" encoding="utf-8"?>
<!-- Generator: Adobe Illustrator 25.4.1, SVG Export Plug-In . SVG Version: 6.00 Build 0)  -->
<svg version="1.1" id="Layer_1" xmlns="http://www.w3.org/2000/svg" xmlns:xlink="http://www.w3.org/1999/xlink" x="0px" y="0px"
	 viewBox="0 0 159.8 840" style="enable-background:new 0 0 159.8 840;" xml:space="preserve">
<g>
	<path d="M49.2,0C32.8,0,16.4,0,0,0c0,280,0,560,0,840c16.4,0,32.8,0,49.2,0c-0.2-8.4-0.6-16.7-0.6-25.1c0-243.7,0-487.4,0-731.1
		C48.5,55.8,48.9,27.9,49.2,0z"/>
	<path d="M90.1,840c-0.2-27.9-0.6-55.8-0.6-83.8c-0.1-243.7,0-487.4,0-731.1c0-8.4,0.4-16.7,0.6-25.1c-8.2,0-16.4,0-24.6,0
		c-0.2,8.4-0.7,16.7-0.7,25.1c0,250.7,0,501.4,0,752.1c0,20.9,0.4,41.9,0.7,62.8C73.7,840,81.9,840,90.1,840z"/>
	<path d="M129.9,293.3c-17.4,0.2-29.5,12.8-29.3,30.5c0.2,17.5,12.7,29.8,30.1,29.6c17.4-0.2,29.3-12.6,29.1-30.5
		C159.6,305.3,147.3,293.1,129.9,293.3z"/>
	<path d="M130.8,486.5c-17.4-0.2-29.9,12-30.2,29.5c-0.3,17.6,11.9,30.4,29.2,30.6c17.5,0.2,29.8-11.9,30-29.6
		C160,499.3,148.1,486.7,130.8,486.5z"/>
</g>
</svg>
