<?xml version="1.0" encoding="utf-8"?>
<!-- Generator: Adobe Illustrator 25.4.1, SVG Export Plug-In . SVG Version: 6.00 Build 0)  -->
<svg version="1.1" id="Layer_1" xmlns="http://www.w3.org/2000/svg" xmlns:xlink="http://www.w3.org/1999/xlink" x="0px" y="0px"
	 viewBox="0 0 159.8 840" style="enable-background:new 0 0 159.8 840;" xml:space="preserve">
<g>
	<path d="M110.6,0c16.4,0,32.8,0,49.2,0c0,280,0,560,0,840c-16.4,0-32.8,0-49.2,0c0.2-8.4,0.6-16.7,0.6-25.1
		c0-243.7,0-487.4,0-731.1C111.2,55.8,110.8,27.9,110.6,0z"/>
	<path d="M69.6,840c0.2-27.9,0.6-55.8,0.6-83.8c0.1-243.7,0-487.4,0-731.1c0-8.4-0.4-16.7-0.6-25.1C77.8,0,86,0,94.2,0
		c0.2,8.4,0.7,16.7,0.7,25.1c0,250.7,0,501.4,0,752.1c0,20.9-0.4,41.9-0.7,62.8C86,840,77.8,840,69.6,840z"/>
	<path d="M29.9,293.3c17.4,0.2,29.5,12.8,29.3,30.5c-0.2,17.5-12.7,29.8-30.1,29.6C11.6,353.2-0.2,340.8,0,323
		C0.2,305.3,12.5,293.1,29.9,293.3z"/>
	<path d="M29,486.5c17.4-0.2,29.9,12,30.2,29.5c0.3,17.6-11.9,30.4-29.2,30.6c-17.5,0.2-29.8-11.9-30-29.6
		C-0.2,499.3,11.7,486.7,29,486.5z"/>
</g>
</svg>
